<?xml version="1.0" encoding="UTF-8" standalone="no"?>
<svg
   xmlns:dc="http://purl.org/dc/elements/1.1/"
   xmlns:cc="http://creativecommons.org/ns#"
   xmlns:rdf="http://www.w3.org/1999/02/22-rdf-syntax-ns#"
   xmlns:svg="http://www.w3.org/2000/svg"
   xmlns="http://www.w3.org/2000/svg"
   xmlns:sodipodi="http://sodipodi.sourceforge.net/DTD/sodipodi-0.dtd"
   xmlns:inkscape="http://www.inkscape.org/namespaces/inkscape"
   pointer-events="all"
   width="348"
   height="337"
   version="1.1"
   id="svg3279"
   inkscape:version="0.48.3.1 r9886"
   sodipodi:docname="nationality-type.svg">
  <metadata
     id="metadata3389">
    <rdf:RDF>
      <cc:Work
         rdf:about="">
        <dc:format>image/svg+xml</dc:format>
        <dc:type
           rdf:resource="http://purl.org/dc/dcmitype/StillImage" />
      </cc:Work>
    </rdf:RDF>
  </metadata>
  <defs
     id="defs3387" />
  <sodipodi:namedview
     pagecolor="#ffffff"
     bordercolor="#666666"
     borderopacity="1"
     objecttolerance="10"
     gridtolerance="10"
     guidetolerance="10"
     inkscape:pageopacity="0"
     inkscape:pageshadow="2"
     inkscape:window-width="1301"
     inkscape:window-height="744"
     id="namedview3385"
     showgrid="false"
     inkscape:zoom="0.59695218"
     inkscape:cx="951.5"
     inkscape:cy="400"
     inkscape:window-x="65"
     inkscape:window-y="24"
     inkscape:window-maximized="1"
     inkscape:current-layer="svg3279" />
  <rect
     class="overlay"
     width="1903"
     height="800"
     id="rect3281"
     x="0"
     y="-463"
     style="fill:none" />
  <g
     class="main"
     id="g3283"
     transform="matrix(1.0949924,0,0,1.1340015,-879.47692,-217.24825)">
    <g
       class="layer nodes"
       id="g3285">
      <circle
         class="node source"
         r="17.080393"
         transform="translate(924.30219,285.20211)"
         style="fill:#bbbbbb;fill-opacity:0.95;stroke:#eeeeee;stroke-width:2px"
         id="circle3287"
         cx="0"
         cy="0"
         sodipodi:cx="0"
         sodipodi:cy="0"
         sodipodi:rx="17.080393"
         sodipodi:ry="17.080393"
         d="M 17.080393,0 C 17.080393,9.4332405 9.4332405,17.080393 0,17.080393 -9.4332405,17.080393 -17.080393,9.4332405 -17.080393,0 c 0,-9.4332405 7.6471525,-17.080393 17.080393,-17.080393 9.4332405,0 17.080393,7.6471525 17.080393,17.080393 z" />
      <circle
         class="node target"
         r="20"
         transform="translate(958.59996,362.20518)"
         style="fill:#bbbbbb;fill-opacity:0.95;stroke:#eeeeee;stroke-width:2px"
         id="circle3289"
         cx="0"
         cy="0"
         sodipodi:cx="0"
         sodipodi:cy="0"
         sodipodi:rx="20"
         sodipodi:ry="20"
         d="m 20,0 c 0,11.045695 -8.954305,20 -20,20 -11.045695,0 -20,-8.954305 -20,-20 0,-11.045695 8.954305,-20 20,-20 11.045695,0 20,8.954305 20,20 z" />
      <circle
         class="node source"
         r="16.614416"
         transform="translate(956.14703,252.61032)"
         style="fill:#bbbbbb;fill-opacity:0.95;stroke:#eeeeee;stroke-width:2px"
         id="circle3291"
         cx="0"
         cy="0"
         sodipodi:cx="0"
         sodipodi:cy="0"
         sodipodi:rx="16.614416"
         sodipodi:ry="16.614416"
         d="M 16.614416,0 C 16.614416,9.1758887 9.1758887,16.614416 0,16.614416 -9.1758887,16.614416 -16.614416,9.1758887 -16.614416,0 c 0,-9.1758887 7.4385273,-16.614416 16.614416,-16.614416 9.1758887,0 16.614416,7.4385273 16.614416,16.614416 z" />
      <circle
         class="node target"
         r="16.614416"
         transform="translate(1022.6603,238.067)"
         style="fill:#bbbbbb;fill-opacity:0.95;stroke:#eeeeee;stroke-width:2px"
         id="circle3293"
         cx="0"
         cy="0"
         sodipodi:cx="0"
         sodipodi:cy="0"
         sodipodi:rx="16.614416"
         sodipodi:ry="16.614416"
         d="M 16.614416,0 C 16.614416,9.1758887 9.1758887,16.614416 0,16.614416 -9.1758887,16.614416 -16.614416,9.1758887 -16.614416,0 c 0,-9.1758887 7.4385273,-16.614416 16.614416,-16.614416 9.1758887,0 16.614416,7.4385273 16.614416,16.614416 z" />
      <circle
         class="node source"
         r="8.2064962"
         transform="translate(903.86573,445.2668)"
         style="fill:#bbbbbb;fill-opacity:0.95;stroke:#eeeeee;stroke-width:2px"
         id="circle3295"
         cx="0"
         cy="0"
         sodipodi:cx="0"
         sodipodi:cy="0"
         sodipodi:rx="8.2064962"
         sodipodi:ry="8.2064962"
         d="M 8.2064962,0 C 8.2064962,4.5323227 4.5323227,8.2064962 0,8.2064962 -4.5323227,8.2064962 -8.2064962,4.5323227 -8.2064962,0 c 0,-4.5323227 3.6741735,-8.2064962 8.2064962,-8.2064962 4.5323227,0 8.2064962,3.6741735 8.2064962,8.2064962 z" />
      <circle
         class="node source"
         r="7.59411"
         transform="translate(1056.5372,321.50099)"
         style="fill:#bbbbbb;fill-opacity:0.95;stroke:#eeeeee;stroke-width:2px"
         id="circle3297"
         cx="0"
         cy="0"
         sodipodi:cx="0"
         sodipodi:cy="0"
         sodipodi:rx="7.59411"
         sodipodi:ry="7.59411"
         d="M 7.59411,0 C 7.59411,4.1941111 4.1941111,7.59411 0,7.59411 -4.1941111,7.59411 -7.59411,4.1941111 -7.59411,0 c 0,-4.1941111 3.3999989,-7.59411 7.59411,-7.59411 4.1941111,0 7.59411,3.3999989 7.59411,7.59411 z" />
      <circle
         class="node source"
         r="6.0745153"
         transform="translate(1028.5278,429.87168)"
         style="fill:#bbbbbb;fill-opacity:0.95;stroke:#eeeeee;stroke-width:2px"
         id="circle3299"
         cx="0"
         cy="0"
         sodipodi:cx="0"
         sodipodi:cy="0"
         sodipodi:rx="6.0745153"
         sodipodi:ry="6.0745153"
         d="M 6.0745153,0 C 6.0745153,3.3548622 3.3548622,6.0745153 0,6.0745153 -3.3548622,6.0745153 -6.0745153,3.3548622 -6.0745153,0 c 0,-3.3548622 2.7196531,-6.0745153 6.0745153,-6.0745153 3.3548622,0 6.0745153,2.7196531 6.0745153,6.0745153 z" />
      <circle
         class="node source"
         r="7.59411"
         transform="translate(1011.8417,308.94231)"
         style="fill:#bbbbbb;fill-opacity:0.95;stroke:#eeeeee;stroke-width:2px"
         id="circle3301"
         cx="0"
         cy="0"
         sodipodi:cx="0"
         sodipodi:cy="0"
         sodipodi:rx="7.59411"
         sodipodi:ry="7.59411"
         d="M 7.59411,0 C 7.59411,4.1941111 4.1941111,7.59411 0,7.59411 -4.1941111,7.59411 -7.59411,4.1941111 -7.59411,0 c 0,-4.1941111 3.3999989,-7.59411 7.59411,-7.59411 4.1941111,0 7.59411,3.3999989 7.59411,7.59411 z" />
      <circle
         class="node target"
         r="6.8990202"
         transform="translate(881.64048,216.22071)"
         style="fill:#bbbbbb;fill-opacity:0.95;stroke:#eeeeee;stroke-width:2px"
         id="circle3303"
         cx="0"
         cy="0"
         sodipodi:cx="0"
         sodipodi:cy="0"
         sodipodi:rx="6.8990202"
         sodipodi:ry="6.8990202"
         d="M 6.8990202,0 C 6.8990202,3.8102236 3.8102236,6.8990202 0,6.8990202 -3.8102236,6.8990202 -6.8990202,3.8102236 -6.8990202,0 c 0,-3.8102236 3.0887966,-6.8990202 6.8990202,-6.8990202 3.8102236,0 6.8990202,3.0887966 6.8990202,6.8990202 z" />
      <circle
         class="node source"
         r="5"
         transform="translate(866.06705,386.9621)"
         style="fill:#bbbbbb;fill-opacity:0.95;stroke:#eeeeee;stroke-width:2px"
         id="circle3305"
         cx="0"
         cy="0"
         sodipodi:cx="0"
         sodipodi:cy="0"
         sodipodi:rx="5"
         sodipodi:ry="5"
         d="M 5,0 C 5,2.7614237 2.7614237,5 0,5 -2.7614237,5 -5,2.7614237 -5,0 c 0,-2.7614237 2.2385763,-5 5,-5 2.7614237,0 5,2.2385763 5,5 z" />
      <circle
         class="node source"
         r="5"
         transform="translate(968.47506,461.58437)"
         style="fill:#bbbbbb;fill-opacity:0.95;stroke:#eeeeee;stroke-width:2px"
         id="circle3307"
         cx="0"
         cy="0"
         sodipodi:cx="0"
         sodipodi:cy="0"
         sodipodi:rx="5"
         sodipodi:ry="5"
         d="M 5,0 C 5,2.7614237 2.7614237,5 0,5 -2.7614237,5 -5,2.7614237 -5,0 c 0,-2.7614237 2.2385763,-5 5,-5 2.7614237,0 5,2.2385763 5,5 z" />
    </g>
    <g
       class="layer labels"
       id="g3309">
      <g
         class="anchor-node"
         transform="translate(913.84494,282.35125)"
         id="g3311">
        <text
           transform="translate(-60.908491,5)"
           style="font-size:11px;fill:#555555;font-family:'merriweather, Arial, Helvetica'"
           id="text3313">Portuguese</text>
      </g>
      <g
         class="anchor-node"
         transform="translate(955.53186,370.78906)"
         id="g3315">
        <text
           transform="translate(-20.716888,5)"
           style="font-size:11px;fill:#555555;font-family:'merriweather, Arial, Helvetica'"
           id="text3317">Royal</text>
      </g>
      <g
         class="anchor-node"
         transform="translate(955.70716,240.97906)"
         id="g3319">
        <text
           transform="translate(-23.350289,5)"
           style="font-size:11px;fill:#555555;font-family:'merriweather, Arial, Helvetica'"
           id="text3321">Galician</text>
      </g>
      <g
         class="anchor-node"
         transform="translate(1030.1279,227.69251)"
         id="g3323">
        <text
           transform="translate(-6.8606929,5)"
           style="font-size:11px;fill:#555555;font-family:'merriweather, Arial, Helvetica'"
           id="text3325">Noble</text>
      </g>
      <g
         class="anchor-node"
         transform="translate(896.91636,455.18014)"
         id="g3327">
        <text
           transform="translate(-39.350457,5)"
           style="font-size:11px;fill:#555555;font-family:'merriweather, Arial, Helvetica'"
           id="text3329">Castilian</text>
      </g>
      <g
         class="anchor-node"
         transform="translate(1069.3308,321.92336)"
         id="g3331">
        <text
           transform="translate(-0.01225151,5)"
           style="font-size:11px;fill:#555555;font-family:'merriweather, Arial, Helvetica'"
           id="text3333">Leonese</text>
      </g>
      <g
         class="anchor-node"
         transform="translate(1037.57,437.79525)"
         id="g3335">
        <text
           transform="translate(-7.0651618,5)"
           style="font-size:11px;fill:#555555;font-family:'merriweather, Arial, Helvetica'"
           id="text3337">Aragonese</text>
      </g>
      <g
         class="anchor-node"
         transform="translate(1020.5581,304.89222)"
         id="g3339">
        <text
           transform="translate(-1.9554623,5)"
           style="font-size:11px;fill:#555555;font-family:'merriweather, Arial, Helvetica'"
           id="text3341">Occitan</text>
      </g>
      <g
         class="anchor-node"
         transform="translate(873.70511,206.61776)"
         id="g3343">
        <text
           transform="translate(-42.562014,5)"
           style="font-size:11px;fill:#555555;font-family:'merriweather, Arial, Helvetica'"
           id="text3345">Unknown</text>
      </g>
      <g
         class="anchor-node"
         transform="translate(854.37272,389.32488)"
         id="g3347">
        <text
           transform="translate(-43.564255,5)"
           style="font-size:11px;fill:#555555;font-family:'merriweather, Arial, Helvetica'"
           id="text3349">Sevillan</text>
      </g>
      <g
         class="anchor-node"
         transform="translate(969.87592,473.63545)"
         id="g3351">
        <text
           transform="translate(-22.997871,5)"
           style="font-size:11px;fill:#555555;font-family:'merriweather, Arial, Helvetica'"
           id="text3353">Genovese</text>
      </g>
    </g>
    <g
       class="layer links"
       id="g3355">
      <path
         class="link"
         d="m 924.30219,285.20211 34.29777,77.00307"
         href="#path0_1"
         style="fill:none;stroke:#666666;stroke-width:1px;stroke-opacity:0.5"
         id="path3357"
         inkscape:connector-curvature="0" />
      <path
         class="link"
         d="M 956.14703,252.61032 1022.6603,238.067"
         href="#path2_3"
         style="fill:none;stroke:#666666;stroke-width:1px;stroke-opacity:0.5"
         id="path3359"
         inkscape:connector-curvature="0" />
      <path
         class="link"
         d="m 956.14703,252.61032 2.45293,109.59486"
         href="#path2_1"
         style="fill:none;stroke:#666666;stroke-width:1px;stroke-opacity:0.5"
         id="path3361"
         inkscape:connector-curvature="0" />
      <path
         class="link"
         d="M 924.30219,285.20211 1022.6603,238.067"
         href="#path0_3"
         style="fill:none;stroke:#666666;stroke-width:1px;stroke-opacity:0.5"
         id="path3363"
         inkscape:connector-curvature="0" />
      <path
         class="link"
         d="m 903.86573,445.2668 54.73423,-83.06162"
         href="#path4_1"
         style="fill:none;stroke:#666666;stroke-width:1px;stroke-opacity:0.5"
         id="path3365"
         inkscape:connector-curvature="0" />
      <path
         class="link"
         d="m 1056.5372,321.50099 -97.93724,40.70419"
         href="#path5_1"
         style="fill:none;stroke:#666666;stroke-width:1px;stroke-opacity:0.5"
         id="path3367"
         inkscape:connector-curvature="0" />
      <path
         class="link"
         d="m 1028.5278,429.87168 -69.92784,-67.6665"
         href="#path6_1"
         style="fill:none;stroke:#666666;stroke-width:1px;stroke-opacity:0.5"
         id="path3369"
         inkscape:connector-curvature="0" />
      <path
         class="link"
         d="m 1011.8417,308.94231 -53.24174,53.26287"
         href="#path7_1"
         style="fill:none;stroke:#666666;stroke-width:1px;stroke-opacity:0.5"
         id="path3371"
         inkscape:connector-curvature="0" />
      <path
         class="link"
         d="M 956.14703,252.61032 881.64048,216.22071"
         href="#path2_8"
         style="fill:none;stroke:#666666;stroke-width:1px;stroke-opacity:0.5"
         id="path3373"
         inkscape:connector-curvature="0" />
      <path
         class="link"
         d="M 1011.8417,308.94231 1022.6603,238.067"
         href="#path7_3"
         style="fill:none;stroke:#666666;stroke-width:1px;stroke-opacity:0.5"
         id="path3375"
         inkscape:connector-curvature="0" />
      <path
         class="link"
         d="M 1056.5372,321.50099 1022.6603,238.067"
         href="#path5_3"
         style="fill:none;stroke:#666666;stroke-width:1px;stroke-opacity:0.5"
         id="path3377"
         inkscape:connector-curvature="0" />
      <path
         class="link"
         d="m 924.30219,285.20211 -42.66171,-68.9814"
         href="#path0_8"
         style="fill:none;stroke:#666666;stroke-width:1px;stroke-opacity:0.5"
         id="path3379"
         inkscape:connector-curvature="0" />
      <path
         class="link"
         d="m 866.06705,386.9621 92.53291,-24.75692"
         href="#path9_1"
         style="fill:none;stroke:#666666;stroke-width:1px;stroke-opacity:0.5"
         id="path3381"
         inkscape:connector-curvature="0" />
      <path
         class="link"
         d="m 968.47506,461.58437 -9.8751,-99.37919"
         href="#path10_1"
         style="fill:none;stroke:#666666;stroke-width:1px;stroke-opacity:0.5"
         id="path3383"
         inkscape:connector-curvature="0" />
    </g>
  </g>
</svg>
